<?xml version="1.0" encoding="iso-8859-1"?>
<!-- Generator: Adobe Illustrator 19.0.0, SVG Export Plug-In . SVG Version: 6.00 Build 0)  -->
<svg version="1.1" id="Capa_1" xmlns="http://www.w3.org/2000/svg" xmlns:xlink="http://www.w3.org/1999/xlink" x="0px" y="0px"
	 viewBox="0 0 512 512" style="enable-background:new 0 0 512 512;" xml:space="preserve">
<path style="fill:#E64B55;" d="M403.642,505.603c-52.771,0-95.704-42.933-95.704-95.704s42.932-95.703,95.704-95.703
	s95.703,42.932,95.703,95.703S456.412,505.603,403.642,505.603z M403.642,329.269c-44.46,0-80.63,36.171-80.63,80.629
	c0,44.46,36.171,80.631,80.63,80.631s80.629-36.171,80.629-80.631C484.271,365.44,448.101,329.269,403.642,329.269z"/>
<path style="fill:#50555A;" d="M403.642,321.732c48.693,0,88.166,39.474,88.166,88.166s-39.474,88.167-88.166,88.167
	s-88.166-39.474-88.166-88.167S354.949,321.732,403.642,321.732 M403.642,307.799c-56.298,0-102.101,45.802-102.101,102.101
	S347.344,512,403.642,512S505.743,466.198,505.743,409.9C505.742,353.601,459.94,307.799,403.642,307.799L403.642,307.799z"/>
<path style="fill:#373C41;" d="M403.642,307.799c-0.152,0-0.302,0.005-0.453,0.006v13.934c0.152-0.001,0.301-0.006,0.453-0.006
	c48.693,0,88.167,39.474,88.167,88.166s-39.474,88.167-88.167,88.167c-0.152,0-0.302-0.005-0.453-0.006v13.934
	c0.152,0.001,0.301,0.006,0.453,0.006c56.298,0,102.101-45.802,102.101-102.101C505.743,353.601,459.94,307.799,403.642,307.799z"/>
<path id="SVGCleanerId_0" style="fill:#B9B9BE;" d="M403.642,385.487c-13.461,0-24.413,10.951-24.413,24.412
	c0,13.461,10.951,24.413,24.413,24.413s24.413-10.951,24.413-24.413C428.054,396.438,417.102,385.487,403.642,385.487
	L403.642,385.487z"/>
<g>
	<path id="SVGCleanerId_0_1_" style="fill:#B9B9BE;" d="M403.642,385.487c-13.461,0-24.413,10.951-24.413,24.412
		c0,13.461,10.951,24.413,24.413,24.413s24.413-10.951,24.413-24.413C428.054,396.438,417.102,385.487,403.642,385.487
		L403.642,385.487z"/>
</g>
<path style="fill:#E64B55;" d="M108.358,505.603c-52.771,0-95.703-42.933-95.703-95.704s42.932-95.703,95.703-95.703
	s95.703,42.932,95.703,95.703S161.129,505.603,108.358,505.603z M108.358,329.269c-44.46,0-80.629,36.171-80.629,80.629
	c0,44.46,36.171,80.631,80.629,80.631s80.629-36.171,80.629-80.631C188.988,365.44,152.818,329.269,108.358,329.269z"/>
<path style="fill:#50555A;" d="M108.358,321.732c48.693,0,88.166,39.474,88.166,88.166s-39.474,88.167-88.166,88.167
	s-88.166-39.474-88.166-88.167S59.666,321.732,108.358,321.732 M108.358,307.799C52.06,307.799,6.258,353.601,6.258,409.9
	S52.06,512,108.358,512S210.459,466.198,210.459,409.9C210.459,353.601,164.657,307.799,108.358,307.799L108.358,307.799z"/>
<path style="fill:#373C41;" d="M108.358,307.799c-0.152,0-0.302,0.005-0.453,0.006v13.934c0.152-0.001,0.301-0.006,0.453-0.006
	c48.693,0,88.167,39.474,88.167,88.166s-39.474,88.167-88.167,88.167c-0.152,0-0.302-0.005-0.453-0.006v13.934
	c0.152,0.001,0.301,0.006,0.453,0.006c56.298,0,102.101-45.802,102.101-102.101C210.459,353.601,164.657,307.799,108.358,307.799z"
	/>
<path style="fill:#B9B9BE;" d="M108.358,385.487c-13.461,0-24.413,10.951-24.413,24.412c0,13.461,10.951,24.413,24.413,24.413
	s24.413-10.951,24.413-24.413C132.771,396.438,121.82,385.487,108.358,385.487L108.358,385.487z"/>
<path style="fill:#46738C;" d="M213.17,408.405c-4.527,0-8.822-2.68-10.664-7.123l-61.489-148.278
	c-2.442-5.888,0.352-12.638,6.239-15.08c5.888-2.441,12.638,0.352,15.08,6.239l61.489,148.278c2.442,5.888-0.352,12.638-6.239,15.08
	C216.141,408.122,214.642,408.405,213.17,408.405z"/>
<path style="fill:#55879B;" d="M213.162,408.402c-2.779,0-5.568-0.998-7.781-3.021c-4.705-4.299-5.033-11.599-0.735-16.303
	l112.458-123.067l-162.11,13.38L99.219,385.323h56.047c6.373,0,11.54,5.166,11.54,11.54c0,6.373-5.166,11.54-11.54,11.54H80.101
	c-4.043,0-7.791-2.115-9.879-5.577c-2.089-3.461-2.215-7.763-0.332-11.34l67.634-128.451c1.838-3.49,5.331-5.8,9.261-6.125
	l197.722-16.32c4.73-0.383,9.217,2.154,11.308,6.415c2.091,4.261,1.362,9.368-1.84,12.87L221.684,404.647
	C219.407,407.138,216.29,408.402,213.162,408.402z"/>
<path style="fill:#B9CDD2;" d="M188.579,261.141h-76.205c-9.688,0-17.542-7.854-17.542-17.542s7.854-17.542,17.542-17.542h76.205
	c9.688,0,17.542,7.854,17.542,17.542C206.121,253.287,198.267,261.141,188.579,261.141z"/>
<path style="fill:#46738C;" d="M394.108,408.406c-4.836,0-9.341-3.064-10.949-7.905l-67.329-202.66
	c-1.038-3.124-0.692-6.544,0.951-9.397c1.643-2.853,4.426-4.869,7.65-5.54l52.122-10.844c6.242-1.296,12.351,2.708,13.649,8.947
	c1.297,6.239-2.708,12.35-8.947,13.648l-39.436,8.205l63.243,190.362c2.01,6.048-1.264,12.58-7.313,14.59
	C396.542,408.215,395.314,408.406,394.108,408.406z"/>
<path style="fill:#FFB69E;" d="M204.411,420.413c-13.006-4.834-19.63-19.298-14.795-32.304l38.573-103.765l-76.937-50.823
	c-11.578-7.648-14.764-23.234-7.116-34.811c7.647-11.578,23.235-14.764,34.811-7.116l93.594,61.827
	c9.753,6.442,13.775,18.761,9.702,29.718l-45.53,122.479C231.881,418.621,217.416,425.249,204.411,420.413z"/>
<path style="fill:#3C5064;" d="M297.818,115.767l-37.286-39.623c-5.904-6.273-14.137-9.829-22.75-9.824
	c-8.614,0.004-16.844,3.568-22.74,9.848l-89.445,95.249c-6.721,7.157-9.911,16.932-8.706,26.677
	c1.205,9.744,6.681,18.448,14.944,23.751l61.711,39.613l0.001-0.001l21.636,14.292l36.466-36.133l-21.541-14.229l66.902-66.003
	C309.077,147.477,309.437,128.114,297.818,115.767z"/>
<path style="fill:#FFA50A;" d="M117.112,188.472c1.081-6.327,3.995-12.275,8.484-17.055l89.445-95.249
	c5.897-6.279,14.127-9.843,22.74-9.848c8.614-0.004,16.847,3.551,22.75,9.824l37.286,39.623
	c11.618,12.347,11.259,31.709-0.81,43.616l-66.902,66.003L117.112,188.472z"/>
<circle style="fill:#FFB69E;" cx="332.454" cy="51.661" r="46.212"/>
<path style="fill:#FA503C;" d="M261.113,6.973c4.006-11.181,26.434-3.807,51.852-6.118c39.148-3.559,58.518,3.806,71.934,25.518
	c5.155,8.343,4.142,19.606,2.364,29.476c-0.315,1.749-1.388,3.269-2.93,4.151c-1.542,0.882-3.396,1.036-5.065,0.422
	C317.962,37.875,252.803,30.165,261.113,6.973z"/>
<path style="fill:#FFB69E;" d="M289.045,194.044c-6.073-0.82-11.53-4.274-14.861-9.512l-54.726-86.035
	c-6.206-9.757-3.328-22.697,6.429-28.903c9.757-6.205,22.697-3.328,28.903,6.429l48.701,76.564l72.409,1.448
	c11.567,0.235,20.747,9.791,20.515,21.352c-0.231,11.56-9.791,20.745-21.352,20.514l-83.631-1.672
	C290.627,194.212,289.83,194.15,289.045,194.044z"/>
<path style="fill:#FA870A;" d="M246.592,141.156l34.722-23.434L254.79,76.023c-6.205-9.756-19.146-12.634-28.903-6.429
	c-9.757,6.206-12.635,19.146-6.429,28.903L246.592,141.156z"/>
<g>
</g>
<g>
</g>
<g>
</g>
<g>
</g>
<g>
</g>
<g>
</g>
<g>
</g>
<g>
</g>
<g>
</g>
<g>
</g>
<g>
</g>
<g>
</g>
<g>
</g>
<g>
</g>
<g>
</g>
</svg>
